<svg width="34" height="35" viewBox="0 0 34 35" fill="none" xmlns="http://www.w3.org/2000/svg">
<path d="M14.7461 18.7983H10.8994V22.8799H9.7124V13.6377H15.3872V14.6406H10.8994V17.8018H14.7461V18.7983ZM18.3994 22.8799V13.6377H21.1479C21.5288 13.6419 21.9012 13.6927 22.2651 13.79C22.6291 13.8831 22.9528 14.0291 23.2363 14.228C23.5199 14.4269 23.7463 14.6808 23.9155 14.9897C24.0848 15.2987 24.1673 15.6689 24.1631 16.1006C24.1589 16.3418 24.1187 16.5618 24.0425 16.7607C23.9705 16.9596 23.8711 17.1374 23.7441 17.2939C23.613 17.4548 23.467 17.5902 23.3062 17.7002C23.1496 17.8102 22.9591 17.9139 22.7349 18.0112V18.0303C22.9676 18.0853 23.1919 18.1847 23.4077 18.3286C23.6235 18.4725 23.8013 18.6312 23.9409 18.8047C24.089 18.9951 24.2033 19.2088 24.2837 19.4458C24.3683 19.6828 24.4106 19.9388 24.4106 20.2139C24.4149 20.6455 24.3324 21.0264 24.1631 21.3564C23.9938 21.6865 23.7674 21.9616 23.4839 22.1816C23.2004 22.4059 22.8724 22.5773 22.5 22.6958C22.1318 22.8143 21.751 22.8757 21.3574 22.8799H18.3994ZM19.5801 18.5571V21.8833H21.3892C21.6346 21.8791 21.8674 21.8389 22.0874 21.7627C22.3075 21.6823 22.5021 21.5723 22.6714 21.4326C22.8407 21.293 22.974 21.1216 23.0713 20.9185C23.1729 20.7153 23.2236 20.4847 23.2236 20.2266C23.2279 19.9642 23.1834 19.7314 23.0903 19.5283C23.0015 19.3252 22.8766 19.1517 22.7158 19.0078C22.555 18.8682 22.3667 18.7603 22.1509 18.6841C21.9351 18.6079 21.7023 18.5656 21.4526 18.5571H19.5801ZM19.5801 17.5796H21.2178C21.4378 17.5754 21.6536 17.5415 21.8652 17.478C22.0768 17.4103 22.2651 17.313 22.4302 17.186C22.5952 17.0633 22.7285 16.911 22.8301 16.729C22.9316 16.547 22.9824 16.3354 22.9824 16.0942C22.9824 15.8361 22.9316 15.616 22.8301 15.4341C22.7327 15.2521 22.6016 15.1019 22.4365 14.9834C22.2673 14.8691 22.0726 14.7845 21.8525 14.7295C21.6367 14.6745 21.4146 14.6449 21.186 14.6406H19.5801V17.5796Z" fill="#042418"/>
<rect x="0.5" y="0.879883" width="33" height="33" rx="16.5" stroke="#042418"/>
</svg>
