<svg width="100" height="101" viewBox="0 0 100 101" fill="none" xmlns="http://www.w3.org/2000/svg">
<path d="M99.5391 49.9216C96.3151 49.9294 93.1224 49.6221 89.9583 48.9971C86.7969 48.3721 83.7266 47.4424 80.7474 46.2106C77.7682 44.9762 74.9401 43.4632 72.263 41.6689C69.5833 39.8721 67.1068 37.833 64.8333 35.5466C62.5495 33.2731 60.5078 30.7966 58.7135 28.1195C56.9193 25.4398 55.4062 22.6117 54.1719 19.6351C52.9375 16.6559 52.0104 13.5856 51.3854 10.4215C50.7604 7.26009 50.4531 4.06478 50.4609 0.84082C50.4609 0.71582 50.4167 0.606445 50.3255 0.515299C50.237 0.426758 50.1276 0.379883 50 0.379883C49.8724 0.379883 49.7656 0.426758 49.6745 0.515299C49.5833 0.606445 49.5391 0.71582 49.5391 0.84082C49.5469 4.06478 49.2396 7.26009 48.6146 10.4215C47.9922 13.5856 47.0625 16.6559 45.8281 19.6351C44.5938 22.6117 43.0807 25.4398 41.2865 28.1195C39.4922 30.7966 37.4505 33.2731 35.1667 35.5466C32.8932 37.833 30.4167 39.8721 27.7396 41.6689C25.0599 43.4632 22.2318 44.9762 19.2526 46.2106C16.276 47.4424 13.2031 48.3721 10.0417 48.9971C6.8776 49.6221 3.6849 49.9294 0.460938 49.9216C0.333334 49.9216 0.223958 49.9658 0.135417 50.0544C0.0442707 50.1455 0 50.2549 0 50.3799C0 50.5075 0.0442707 50.6169 0.135417 50.708C0.223958 50.7966 0.333334 50.8408 0.460938 50.8408C3.6849 50.833 6.8776 51.1403 10.0417 51.7653C13.2031 52.3903 16.2734 53.32 19.2526 54.5544C22.2318 55.7861 25.0599 57.3018 27.737 59.096C30.4167 60.8903 32.8932 62.9294 35.1667 65.2158C37.4505 67.4893 39.4922 69.9658 41.2865 72.6429C43.0807 75.3226 44.5938 78.1507 45.8281 81.1273C47.0625 84.1064 47.9922 87.1768 48.6146 90.3408C49.2396 93.5023 49.5469 96.6976 49.5391 99.9216C49.5391 100.047 49.5833 100.156 49.6745 100.247C49.7656 100.336 49.8724 100.38 50 100.38C50.1276 100.38 50.237 100.336 50.3255 100.247C50.4167 100.156 50.4609 100.047 50.4609 99.9216C50.4609 72.8591 72.4766 50.8408 99.5391 50.8408C99.6667 50.8408 99.776 50.7966 99.8646 50.708C99.9557 50.6169 100 50.5075 100 50.3799C100 50.2549 99.9557 50.1455 99.8646 50.0544C99.776 49.9658 99.6667 49.9216 99.5391 49.9216ZM50 93.1012C49.638 90.4137 49.0573 87.7783 48.263 85.1872C47.4688 82.596 46.4661 80.0882 45.2604 77.6611C44.0547 75.2367 42.6589 72.9242 41.0755 70.7262C39.4896 68.5283 37.737 66.4736 35.8151 64.5622C33.9062 62.6429 31.8542 60.8903 29.6562 59.307C27.4609 57.7236 25.151 56.3278 22.7266 55.1221C20.3021 53.9163 17.7943 52.9163 15.2083 52.1221C12.6198 51.3252 9.98177 50.7445 7.29948 50.3799C9.98438 50.0179 12.6198 49.4372 15.2083 48.6403C17.7969 47.846 20.3021 46.846 22.7292 45.6403C25.1536 44.432 27.4635 43.0387 29.6589 41.4528C31.8568 39.8695 33.9089 38.1169 35.8177 36.1976C37.7396 34.2887 39.4896 32.2341 41.0755 30.0387C42.6589 27.8434 44.0521 25.5309 45.2578 23.1064C46.4661 20.682 47.4661 18.1768 48.2604 15.5882C49.0573 12.9997 49.6354 10.3643 50 7.68197C50.3646 10.3643 50.9453 12.9997 51.7396 15.5882C52.5339 18.1768 53.5365 20.682 54.7422 23.1064C55.9479 25.5309 57.3411 27.8434 58.9271 30.0387C60.5104 32.2341 62.263 34.2887 64.1823 36.1976C66.0938 38.1195 68.1458 39.8721 70.3438 41.4554C72.5417 43.0413 74.8542 44.4372 77.2812 45.6429C79.7083 46.8486 82.2161 47.8486 84.8073 48.6429C87.3958 49.4398 90.0339 50.0179 92.7188 50.3799C70.5938 53.4163 53.0339 70.9762 50 93.1012Z" fill="#042418"/>
</svg>
